<?xml version="1.0" encoding="UTF-8"?>
<svg xmlns="http://www.w3.org/2000/svg" viewBox="0 0 64 64" width="64" height="64">
  <defs>
    <radialGradient id="glow" cx="50%" cy="50%" r="50%">
      <stop offset="0%" stop-color="#FFD54F"/>
      <stop offset="60%" stop-color="#FF8F00"/>
      <stop offset="100%" stop-color="transparent"/>
    </radialGradient>
  </defs>
  <circle cx="32" cy="32" r="12" fill="url(#glow)" opacity="0.6"/>
  <g stroke="#26A6DA" stroke-width="2.5" fill="none" stroke-linecap="round">
    <line x1="32" y1="32" x2="32" y2="10"/>
    <line x1="32" y1="32" x2="32" y2="54"/>
    <line x1="32" y1="32" x2="10" y2="32"/>
    <line x1="32" y1="32" x2="54" y2="32"/>
    <line x1="32" y1="32" x2="18" y2="18"/>
    <line x1="32" y1="32" x2="46" y2="46"/>
    <line x1="32" y1="32" x2="46" y2="18"/>
    <line x1="32" y1="32" x2="18" y2="46"/>
  </g>
  <g fill="#26A6DA">
    <circle cx="32" cy="10" r="3.5"/>
    <circle cx="32" cy="54" r="3.5"/>
    <circle cx="10" cy="32" r="3.5"/>
    <circle cx="54" cy="32" r="3.5"/>
    <circle cx="18" cy="18" r="3.5"/>
    <circle cx="46" cy="46" r="3.5"/>
    <circle cx="46" cy="18" r="3.5"/>
    <circle cx="18" cy="46" r="3.5"/>
  </g>
  <g fill="#FF8F00" opacity="0.8">
    <polygon points="32,20 34.5,32 32,44 29.5,32"/>
    <polygon points="32,20 34.5,32 32,44 29.5,32" transform="rotate(90 32 32)"/>
  </g>
  <g fill="#FFF8E1">
    <polygon points="32,28 33,32 32,36 31,32"/>
    <polygon points="32,28 33,32 32,36 31,32" transform="rotate(90 32 32)"/>
  </g>
</svg>